#tb 0: 1/25
0,          0,          0,        1,   299520, 0xb4c00403
0,          1,          1,        1,   299520, 0xa24ca679
0,          2,          2,        1,   299520, 0xef75663c
0,          3,          3,        1,   299520, 0x0e929b78
0,          4,          4,        1,   299520, 0x5d9e08b7
0,          5,          5,        1,   299520, 0x128120af
0,          6,          6,        1,   299520, 0xec6ca8d7
0,          7,          7,        1,   299520, 0xe7f8fe8c
0,          8,          8,        1,   299520, 0x689495ad
0,          9,          9,        1,   299520, 0xc0cdf301
0,         10,         10,        1,   299520, 0xa06e0fbe
0,         11,         11,        1,   299520, 0x7b852ffe
0,         12,         12,        1,   299520, 0x17822e5a
0,         13,         13,        1,   299520, 0xf10d960c
0,         14,         14,        1,   299520, 0x4e500a20
0,         15,         15,        1,   299520, 0x9da37299
0,         16,         16,        1,   299520, 0x20d6db24
0,         17,         17,        1,   299520, 0xe4edc137
0,         18,         18,        1,   299520, 0x8fc55650
0,         19,         19,        1,   299520, 0x0d8692ca
0,         20,         20,        1,   299520, 0x8ab5470e
0,         21,         21,        1,   299520, 0xc192f26b
0,         22,         22,        1,   299520, 0x7eb3e6d8
0,         23,         23,        1,   299520, 0x4f84fbcf
0,         24,         24,        1,   299520, 0x0e109b00
0,         25,         25,        1,   299520, 0xb721c9ec
0,         26,         26,        1,   299520, 0xb7be0c93
0,         27,         27,        1,   299520, 0x6d845640
0,         28,         28,        1,   299520, 0xf4be3a68
0,         29,         29,        1,   299520, 0xb79b8dd1
0,         30,         30,        1,   299520, 0xcc6c2d05
0,         31,         31,        1,   299520, 0x58cf9928
0,         32,         32,        1,   299520, 0xea573034
0,         33,         33,        1,   299520, 0xaf321a4f
0,         34,         34,        1,   299520, 0x564bc915
0,         35,         35,        1,   299520, 0x8e59013a
0,         36,         36,        1,   299520, 0xf6e385ea
0,         37,         37,        1,   299520, 0xb1b3c240
0,         38,         38,        1,   299520, 0x18a19ec1
0,         39,         39,        1,   299520, 0x4adc2839
0,         40,         40,        1,   299520, 0xbdf513df
0,         41,         41,        1,   299520, 0x3c3b661e
0,         42,         42,        1,   299520, 0x3e0a38fd
0,         43,         43,        1,   299520, 0x873715bf
0,         44,         44,        1,   299520, 0xf3eb1ffb
0,         45,         45,        1,   299520, 0xe3c3a3bd
0,         46,         46,        1,   299520, 0xbfa46914
0,         47,         47,        1,   299520, 0xb62fb1ba
0,         48,         48,        1,   299520, 0xe4445033
0,         49,         49,        1,   299520, 0xe7d867cd
0,         50,         50,        1,   299520, 0x0622668c
0,         51,         51,        1,   299520, 0x104698ff
0,         52,         52,        1,   299520, 0x4b754be6
0,         53,         53,        1,   299520, 0x4ed8fad2
0,         54,         54,        1,   299520, 0xbb9689ee
0,         55,         55,        1,   299520, 0x6ff6bb1b
0,         56,         56,        1,   299520, 0x44ebc54b
0,         57,         57,        1,   299520, 0xbfce543a
0,         58,         58,        1,   299520, 0x8562e0e7
0,         59,         59,        1,   299520, 0xaca7a610
0,         60,         60,        1,   299520, 0x253e1213
0,         61,         61,        1,   299520, 0xd7436af6
0,         62,         62,        1,   299520, 0xe08be7fc
0,         63,         63,        1,   299520, 0x3b6f54a4
0,         64,         64,        1,   299520, 0xc1735a4e
0,         65,         65,        1,   299520, 0x4577ff2d
0,         66,         66,        1,   299520, 0x79dba1b8
0,         67,         67,        1,   299520, 0x694a5b55
0,         68,         68,        1,   299520, 0x430419a7
0,         69,         69,        1,   299520, 0xfe16c798
0,         70,         70,        1,   299520, 0x8239c7ae
0,         71,         71,        1,   299520, 0x491d3baf
0,         72,         72,        1,   299520, 0x05aa8e5b
0,         73,         73,        1,   299520, 0x53d8d3cd
0,         74,         74,        1,   299520, 0x37d50fae
0,         75,         75,        1,   299520, 0x4324ea2a
0,         76,         76,        1,   299520, 0x7012cb2b
0,         77,         77,        1,   299520, 0x6967fbc2
0,         78,         78,        1,   299520, 0x75b6464a
0,         79,         79,        1,   299520, 0x7544e57e
0,         80,         80,        1,   299520, 0xaedad2e4
0,         81,         81,        1,   299520, 0x65fc84a6
0,         82,         82,        1,   299520, 0x98124d61
0,         83,         83,        1,   299520, 0xb9d8e34e
0,         84,         84,        1,   299520, 0x1562cbd1
0,         85,         85,        1,   299520, 0x739e76c8
0,         86,         86,        1,   299520, 0x2422441b
0,         87,         87,        1,   299520, 0x0af04b6f
0,         88,         88,        1,   299520, 0x7ed64007
0,         89,         89,        1,   299520, 0x616ac67b
0,         90,         90,        1,   299520, 0x2fca6e20
0,         91,         91,        1,   299520, 0x0b6ac6b0
0,         92,         92,        1,   299520, 0xf079d08f
0,         93,         93,        1,   299520, 0x4bed6c3a
0,         94,         94,        1,   299520, 0x1587842f
0,         95,         95,        1,   299520, 0x6ca0e935
0,         96,         96,        1,   299520, 0xb5406f1a
0,         97,         97,        1,   299520, 0x308ff98c
0,         98,         98,        1,   299520, 0x829a9545
0,         99,         99,        1,   299520, 0x07105247
0,        100,        100,        1,   299520, 0x6d4b7bbd
0,        101,        101,        1,   299520, 0x3d9afb50
0,        102,        102,        1,   299520, 0x56d0df1d
0,        103,        103,        1,   299520, 0x7305cf76
0,        104,        104,        1,   299520, 0xef520c7b
0,        105,        105,        1,   299520, 0x67435e65
0,        106,        106,        1,   299520, 0x481815ed
0,        107,        107,        1,   299520, 0x319350fa
0,        108,        108,        1,   299520, 0x4b0af2da
0,        109,        109,        1,   299520, 0x762dbeff
0,        110,        110,        1,   299520, 0x42f7e493
0,        111,        111,        1,   299520, 0x3bcea930
0,        112,        112,        1,   299520, 0x3830a23b
0,        113,        113,        1,   299520, 0x56b9394a
0,        114,        114,        1,   299520, 0xb0d69b7d
0,        115,        115,        1,   299520, 0x805c3ebf
0,        116,        116,        1,   299520, 0xeb153ce2
0,        117,        117,        1,   299520, 0x14f820c6
0,        118,        118,        1,   299520, 0x309b9d11
0,        119,        119,        1,   299520, 0x2400fa20
0,        120,        120,        1,   299520, 0x1c5272dd
0,        121,        121,        1,   299520, 0x6d1fe42a
0,        122,        122,        1,   299520, 0x9ce53887
0,        123,        123,        1,   299520, 0x0fbdfcab
0,        124,        124,        1,   299520, 0xaf81aadc
0,        125,        125,        1,   299520, 0xa770bfee
0,        126,        126,        1,   299520, 0xbfd9ae2f
0,        127,        127,        1,   299520, 0xba00b2ef
0,        128,        128,        1,   299520, 0x5f34715a
0,        129,        129,        1,   299520, 0x5f34715a
0,        130,        130,        1,   299520, 0x900e4e0d
0,        131,        131,        1,   299520, 0xecfcb205
0,        132,        132,        1,   299520, 0x11accc0a
0,        133,        133,        1,   299520, 0xf3c4bcad
0,        134,        134,        1,   299520, 0x275bccbf
0,        135,        135,        1,   299520, 0x569ed1e0
0,        136,        136,        1,   299520, 0x3e4ba802
0,        137,        137,        1,   299520, 0x5a25a4f0
0,        138,        138,        1,   299520, 0x612a9c4a
0,        139,        139,        1,   299520, 0x0faf39ac
0,        140,        140,        1,   299520, 0xa5b76f87
0,        141,        141,        1,   299520, 0xedfa5e04
0,        142,        142,        1,   299520, 0x4560b3bc
0,        143,        143,        1,   299520, 0x66498c7b
0,        144,        144,        1,   299520, 0x50859f19
0,        145,        145,        1,   299520, 0x1127b382
0,        146,        146,        1,   299520, 0xc4f9fc8f
0,        147,        147,        1,   299520, 0x6e423412
0,        148,        148,        1,   299520, 0x8ec6d470
0,        149,        149,        1,   299520, 0x85ea0cfd
0,        150,        150,        1,   299520, 0xe2eede8f
0,        151,        151,        1,   299520, 0x628ed883
0,        152,        152,        1,   299520, 0x4df0ad95
0,        153,        153,        1,   299520, 0x8636994f
0,        154,        154,        1,   299520, 0xbfbec383
0,        155,        155,        1,   299520, 0xf1c1ca0f
0,        156,        156,        1,   299520, 0x7e0d0b01
0,        157,        157,        1,   299520, 0x939d1b0a
0,        158,        158,        1,   299520, 0x9d74de13
0,        159,        159,        1,   299520, 0x60e97cb2
0,        160,        160,        1,   299520, 0xd9087130
0,        161,        161,        1,   299520, 0xdcb71e6b
0,        162,        162,        1,   299520, 0x37800cb5
0,        163,        163,        1,   299520, 0xf7654cd5
0,        164,        164,        1,   299520, 0x3b8adc9a
0,        165,        165,        1,   299520, 0xce36e818
0,        166,        166,        1,   299520, 0x28ef28fc
0,        167,        167,        1,   299520, 0x926ce57a
0,        168,        168,        1,   299520, 0x7b8712c5
0,        169,        169,        1,   299520, 0x7a7bf534
0,        170,        170,        1,   299520, 0x2e46814a
0,        171,        171,        1,   299520, 0x214e8713
0,        172,        172,        1,   299520, 0x2269e687
0,        173,        173,        1,   299520, 0x25e78719
0,        174,        174,        1,   299520, 0xd72c5cda
0,        175,        175,        1,   299520, 0xb112bd33
0,        176,        176,        1,   299520, 0x0da2ae14
0,        177,        177,        1,   299520, 0xcc4a0c86
0,        178,        178,        1,   299520, 0x39eb41b2
0,        179,        179,        1,   299520, 0x6b2fa84c
0,        180,        180,        1,   299520, 0xa813a423
0,        181,        181,        1,   299520, 0x2535bfc2
0,        182,        182,        1,   299520, 0x99d61713
0,        183,        183,        1,   299520, 0x5f1a102a
0,        184,        184,        1,   299520, 0x5e6d9c01
0,        185,        185,        1,   299520, 0xa3844a34
0,        186,        186,        1,   299520, 0xbd03b23d
0,        187,        187,        1,   299520, 0x817c5a9b
0,        188,        188,        1,   299520, 0xb4d80097
0,        189,        189,        1,   299520, 0xd6fe0fa5
0,        190,        190,        1,   299520, 0xd1c1d9d9
0,        191,        191,        1,   299520, 0x00dbba0e
0,        192,        192,        1,   299520, 0xed8c7c20
0,        193,        193,        1,   299520, 0x76ea9f3d
0,        194,        194,        1,   299520, 0x10aec3e2
0,        195,        195,        1,   299520, 0xb0d53cc5
0,        196,        196,        1,   299520, 0xc47ab8c4
0,        197,        197,        1,   299520, 0x1cc29ec8
0,        198,        198,        1,   299520, 0x2dd1bc30
0,        199,        199,        1,   299520, 0x0b99a129
0,        200,        200,        1,   299520, 0x64b2f81f
0,        201,        201,        1,   299520, 0x77553e07
0,        202,        202,        1,   299520, 0x5c6b17ff
0,        203,        203,        1,   299520, 0x63d3001f
0,        204,        204,        1,   299520, 0x62ea3ef5
0,        205,        205,        1,   299520, 0xbe5c8203
0,        206,        206,        1,   299520, 0x11232e25
0,        207,        207,        1,   299520, 0xeb36559e
0,        208,        208,        1,   299520, 0x71bc8385
0,        209,        209,        1,   299520, 0x57aa181a
0,        210,        210,        1,   299520, 0xf55e5d57
0,        211,        211,        1,   299520, 0x3938ec37
0,        212,        212,        1,   299520, 0x635f03e7
0,        213,        213,        1,   299520, 0xa816b2cf
0,        214,        214,        1,   299520, 0xd9371e5d
0,        215,        215,        1,   299520, 0xdb890a06
0,        216,        216,        1,   299520, 0xd1e49c0a
0,        217,        217,        1,   299520, 0x597a5f9c
0,        218,        218,        1,   299520, 0x74453195
0,        219,        219,        1,   299520, 0x16d245fe
0,        220,        220,        1,   299520, 0x65e348c5
0,        221,        221,        1,   299520, 0x69c1bd9b
0,        222,        222,        1,   299520, 0x9daa2c58
0,        223,        223,        1,   299520, 0x94043686
0,        224,        224,        1,   299520, 0xfd5bc6cd
0,        225,        225,        1,   299520, 0xf4d61f49
0,        226,        226,        1,   299520, 0xf51c020a
0,        227,        227,        1,   299520, 0x41ed4099
0,        228,        228,        1,   299520, 0x20c0be4e
0,        229,        229,        1,   299520, 0x3f727b3f
0,        230,        230,        1,   299520, 0xbfdf76bb
0,        231,        231,        1,   299520, 0x88ca8364
0,        232,        232,        1,   299520, 0x845f795b
0,        233,        233,        1,   299520, 0x40df8c73
0,        234,        234,        1,   299520, 0x6e92a38e
0,        235,        235,        1,   299520, 0x13e91ade
0,        236,        236,        1,   299520, 0x3dfa4ac8
0,        237,        237,        1,   299520, 0xaf139ba7
0,        238,        238,        1,   299520, 0xb01387de
0,        239,        239,        1,   299520, 0xe063862c
0,        240,        240,        1,   299520, 0xa6c39438
0,        241,        241,        1,   299520, 0x912a6c6e
0,        242,        242,        1,   299520, 0xf8909b45
0,        243,        243,        1,   299520, 0x7befd2e0
0,        244,        244,        1,   299520, 0x08c02595
0,        245,        245,        1,   299520, 0x5995cad3
0,        246,        246,        1,   299520, 0x74939714
0,        247,        247,        1,   299520, 0xd0be2d9f
0,        248,        248,        1,   299520, 0x16d60745
0,        249,        249,        1,   299520, 0x2eccc011
0,        250,        250,        1,   299520, 0xda5eb575
0,        251,        251,        1,   299520, 0xc1a73b98
0,        252,        252,        1,   299520, 0x218948b8
